<svg width="24" height="24" viewBox="0 0 24 24" fill="none" xmlns="http://www.w3.org/2000/svg"><rect width="24" height="24" rx="12" fill="#FEFEFE"/><path d="M18.0573 5.84679L18.0573 5.84681L18.0615 5.84859C18.1023 5.86551 18.1346 5.89787 18.1515 5.93859L18.1515 5.9386L18.1533 5.94287C18.1616 5.9623 18.1661 5.98311 18.1666 6.0042V10.0002C18.1666 10.0444 18.1491 10.0868 18.1178 10.118C18.0866 10.1493 18.0442 10.1668 18 10.1668C17.9558 10.1668 17.9134 10.1493 17.8821 10.118C17.8509 10.0868 17.8333 10.0444 17.8333 10.0002V7.60683V6.39889L16.9796 7.25345L10.1196 14.1201L10.1183 14.1214C10.1028 14.137 10.0844 14.1494 10.0641 14.1579C10.0438 14.1663 10.022 14.1707 9.99998 14.1707C9.97798 14.1707 9.95619 14.1663 9.93588 14.1579C9.91557 14.1494 9.89714 14.137 9.88165 14.1214L9.87875 14.1185C9.86313 14.103 9.85073 14.0846 9.84227 14.0643C9.8338 14.0439 9.82945 14.0222 9.82945 14.0002C9.82945 13.9782 9.8338 13.9564 9.84227 13.9361C9.85073 13.9158 9.86313 13.8973 9.87875 13.8818L9.88003 13.8806L16.7467 7.02055L17.6012 6.16683H16.3933H14C13.9558 6.16683 13.9134 6.14927 13.8821 6.11801C13.8509 6.08676 13.8333 6.04437 13.8333 6.00016C13.8333 5.95596 13.8509 5.91357 13.8821 5.88231C13.9134 5.85106 13.9558 5.8335 14 5.8335H17.9959C18.017 5.83401 18.0378 5.83852 18.0573 5.84679ZM15.8821 11.7623C15.9134 11.7311 15.9558 11.7135 16 11.7135C16.0442 11.7135 16.0866 11.7311 16.1178 11.7623C16.1491 11.7936 16.1666 11.836 16.1666 11.8802V16.6668C16.1666 17.0647 16.0086 17.4462 15.7273 17.7275C15.446 18.0088 15.0645 18.1668 14.6666 18.1668H7.33331C6.93549 18.1668 6.55396 18.0088 6.27265 17.7275C5.99135 17.4462 5.83331 17.0647 5.83331 16.6668V9.3335C5.83331 8.93567 5.99135 8.55414 6.27265 8.27284C6.55396 7.99153 6.93549 7.8335 7.33331 7.8335H12.12C12.1642 7.8335 12.2066 7.85106 12.2378 7.88231C12.2691 7.91357 12.2866 7.95596 12.2866 8.00016C12.2866 8.04437 12.2691 8.08676 12.2378 8.11801C12.2066 8.14927 12.1642 8.16683 12.12 8.16683H7.33331C7.02389 8.16683 6.72715 8.28975 6.50836 8.50854C6.28956 8.72733 6.16665 9.02408 6.16665 9.3335V16.6668C6.16665 16.9762 6.28956 17.273 6.50836 17.4918C6.72715 17.7106 7.02389 17.8335 7.33331 17.8335H14.6666C14.9761 17.8335 15.2728 17.7106 15.4916 17.4918C15.7104 17.273 15.8333 16.9762 15.8333 16.6668V11.8802C15.8333 11.836 15.8509 11.7936 15.8821 11.7623Z" fill="black" stroke="#CCA43B"/></svg>