<svg width="24" height="24" viewBox="0 0 24 24" fill="none" xmlns="http://www.w3.org/2000/svg"><rect width="24" height="24" rx="12" fill="#EAEAEA"/><path d="M14 10L16.6667 7.33337M16.6667 7.33337V9.33337M16.6667 7.33337H14.6667" stroke="#CCA43B" stroke-width="1.5" stroke-linecap="round" stroke-linejoin="round"/><path opacity="0.5" d="M10.6917 7.54407L11.1244 8.31936C11.5149 9.01901 11.3581 9.93684 10.7431 10.5518C10.7431 10.5518 10.7431 10.5518 10.7431 10.5518C10.743 10.5519 9.99728 11.2979 11.3497 12.6503C12.7014 14.002 13.4473 13.2576 13.4481 13.2568C13.4481 13.2568 13.4481 13.2568 13.4482 13.2568C14.0631 12.6418 14.9809 12.4851 15.6806 12.8756L16.4559 13.3082C17.5124 13.8978 17.6371 15.3795 16.7085 16.3081C16.1505 16.8661 15.4669 17.3003 14.7113 17.3289C13.4392 17.3771 11.2788 17.0552 9.11179 14.8882C6.94474 12.7211 6.6228 10.5608 6.67102 9.28868C6.69967 8.53303 7.13386 7.84945 7.69186 7.29145C8.62049 6.36281 10.1021 6.48758 10.6917 7.54407Z" fill="#CCA43B"/></svg>