<svg width="16" height="16" viewBox="0 0 16 16" fill="none" xmlns="http://www.w3.org/2000/svg"><path fill-rule="evenodd" clip-rule="evenodd" d="M8.00002 1.3335C5.0545 1.3335 2.66669 4.00189 2.66669 7.00016C2.66669 9.97495 4.3689 13.2084 7.02473 14.4498C7.64385 14.7392 8.35619 14.7392 8.97531 14.4498C11.6311 13.2084 13.3334 9.97495 13.3334 7.00016C13.3334 4.00189 10.9455 1.3335 8.00002 1.3335ZM8.00002 8.00016C8.7364 8.00016 9.33335 7.40321 9.33335 6.66683C9.33335 5.93045 8.7364 5.3335 8.00002 5.3335C7.26364 5.3335 6.66669 5.93045 6.66669 6.66683C6.66669 7.40321 7.26364 8.00016 8.00002 8.00016Z" fill="#CCA43B"/><path d="M8.97531 14.4498L8.65773 13.7703L8.65773 13.7704L8.97531 14.4498ZM7.02473 14.4498L7.34231 13.7704L7.34231 13.7703L7.02473 14.4498ZM3.41669 7.00016C3.41669 4.36103 5.52172 2.0835 8.00002 2.0835V0.583496C4.58729 0.583496 1.91669 3.64274 1.91669 7.00016H3.41669ZM8.00002 2.0835C10.4783 2.0835 12.5834 4.36103 12.5834 7.00016H14.0834C14.0834 3.64274 11.4128 0.583496 8.00002 0.583496V2.0835ZM12.5834 7.00016C12.5834 9.74627 10.9974 12.6768 8.65773 13.7703L9.29289 15.1292C12.2649 13.7401 14.0834 10.2036 14.0834 7.00016H12.5834ZM8.65773 13.7704C8.23988 13.9657 7.76016 13.9657 7.34231 13.7704L6.70715 15.1292C7.52754 15.5127 8.4725 15.5127 9.29289 15.1292L8.65773 13.7704ZM7.34231 13.7703C5.00263 12.6768 3.41669 9.74627 3.41669 7.00016H1.91669C1.91669 10.2036 3.73517 13.7401 6.70715 15.1292L7.34231 13.7703ZM8.58335 6.66683C8.58335 6.989 8.32219 7.25016 8.00002 7.25016V8.75016C9.15061 8.75016 10.0834 7.81742 10.0834 6.66683H8.58335ZM8.00002 7.25016C7.67785 7.25016 7.41669 6.989 7.41669 6.66683H5.91669C5.91669 7.81742 6.84943 8.75016 8.00002 8.75016V7.25016ZM7.41669 6.66683C7.41669 6.34466 7.67785 6.0835 8.00002 6.0835V4.5835C6.84943 4.5835 5.91669 5.51624 5.91669 6.66683H7.41669ZM8.00002 6.0835C8.32219 6.0835 8.58335 6.34466 8.58335 6.66683H10.0834C10.0834 5.51624 9.15061 4.5835 8.00002 4.5835V6.0835Z" fill="#CCA43B"/></svg>