<svg width="107" height="24" viewBox="0 0 107 24" fill="none" xmlns="http://www.w3.org/2000/svg"><path d="M7.392 21.516C5.296 21.516 3.536 21.084 2.112 20.22C0.704 19.34 0 18.308 0 17.124C0 15.844 0.64 15.204 1.92 15.204C2.432 15.204 2.872 15.364 3.24 15.684C3.608 15.988 3.92 16.364 4.176 16.812C4.432 17.26 4.688 17.708 4.944 18.156C5.216 18.604 5.568 18.988 6 19.308C6.448 19.612 6.976 19.764 7.584 19.764C8.176 19.764 8.632 19.62 8.952 19.332C9.288 19.044 9.456 18.644 9.456 18.132C9.456 17.556 9.288 17.068 8.952 16.668C8.616 16.252 8.176 15.932 7.632 15.708C7.088 15.468 6.488 15.252 5.832 15.06C5.176 14.852 4.52 14.62 3.864 14.364C3.224 14.092 2.632 13.772 2.088 13.404C1.544 13.02 1.096 12.484 0.744 11.796C0.408 11.108 0.24 10.292 0.24 9.34799C0.24 7.74799 0.848 6.45999 2.064 5.48399C3.296 4.50799 4.904 4.01999 6.888 4.01999C8.824 4.01999 10.488 4.45999 11.88 5.33999C13.272 6.21999 13.96 7.24399 13.944 8.41199C13.944 9.01999 13.768 9.49999 13.416 9.85199C13.08 10.204 12.576 10.38 11.904 10.38C11.312 10.38 10.808 10.22 10.392 9.89999C9.992 9.57999 9.68 9.19599 9.456 8.74799C9.232 8.29999 9.008 7.85199 8.784 7.40399C8.576 6.93999 8.304 6.54799 7.968 6.22799C7.648 5.90799 7.256 5.74799 6.792 5.74799C6.184 5.74799 5.728 5.91599 5.424 6.25199C5.12 6.57199 4.968 7.00399 4.968 7.54799C4.968 8.23599 5.136 8.81999 5.472 9.29999C5.808 9.77999 6.24 10.156 6.768 10.428C7.312 10.684 7.912 10.916 8.568 11.124C9.224 11.332 9.872 11.564 10.512 11.82C11.168 12.076 11.76 12.38 12.288 12.732C12.832 13.068 13.272 13.556 13.608 14.196C13.944 14.82 14.112 15.58 14.112 16.476C14.112 18.044 13.464 19.276 12.168 20.172C10.888 21.068 9.296 21.516 7.392 21.516Z" fill="#28322E"/><path d="M20.7024 21.516C18.8944 21.516 17.3264 20.956 15.9984 19.836C14.6704 18.7 14.0064 17.26 14.0064 15.516C14.0064 13.772 14.6704 12.34 15.9984 11.22C17.3264 10.084 18.8944 9.51599 20.7024 9.51599C22.5264 9.51599 24.0944 10.084 25.4064 11.22C26.7184 12.34 27.3744 13.772 27.3744 15.516C27.3744 17.26 26.7184 18.7 25.4064 19.836C24.0944 20.956 22.5264 21.516 20.7024 21.516ZM21.2784 20.22C21.7264 20.22 22.0224 20.02 22.1664 19.62C22.3104 19.204 22.3824 18.564 22.3824 17.7C22.3824 17.124 22.3024 16.34 22.1424 15.348C21.9984 14.34 21.7184 13.332 21.3024 12.324C20.9024 11.316 20.4304 10.812 19.8864 10.812C19.4544 10.812 19.1664 11.012 19.0224 11.412C18.8784 11.812 18.8064 12.468 18.8064 13.38C18.8064 14.02 18.8784 14.844 19.0224 15.852C19.1824 16.844 19.4624 17.82 19.8624 18.78C20.2784 19.74 20.7504 20.22 21.2784 20.22Z" fill="#28322E"/><path d="M27.585 21.276C27.185 21.276 26.985 21.108 26.985 20.772V20.676C26.985 20.468 27.145 20.148 27.465 19.716C27.801 19.268 27.969 18.828 27.969 18.396V8.09999C27.969 7.66799 27.801 7.24399 27.465 6.82799C27.145 6.39599 26.985 6.09199 26.985 5.91599V5.81999C26.985 5.61199 27.185 5.41199 27.585 5.21999L31.689 3.20399C32.041 3.04399 32.321 3.02799 32.529 3.15599C32.753 3.28399 32.865 3.48399 32.865 3.75599V18.396C32.865 18.828 33.049 19.268 33.417 19.716C33.785 20.148 33.969 20.468 33.969 20.676V20.772C33.969 21.108 33.769 21.276 33.369 21.276H27.585Z" fill="#28322E"/><path d="M43.5279 17.388C43.7039 17.196 43.9039 17.14 44.1279 17.22C44.3519 17.3 44.4639 17.476 44.4639 17.748C44.4639 18.548 44.0079 19.38 43.0959 20.244C42.1999 21.092 41.0319 21.516 39.5919 21.516C37.7999 21.516 36.3439 20.956 35.2239 19.836C34.1199 18.716 33.5679 17.252 33.5679 15.444C33.5679 13.7 34.1519 12.276 35.3199 11.172C36.5039 10.068 37.9039 9.51599 39.5199 9.51599C40.9919 9.51599 42.1279 9.84399 42.9279 10.5C43.7439 11.156 44.1519 11.892 44.1519 12.708C44.1519 13.3 43.8799 13.772 43.3359 14.124L38.9919 16.956C39.6159 17.756 40.4159 18.156 41.3919 18.156C42.3039 18.156 43.0159 17.9 43.5279 17.388ZM39.1359 10.812C38.7519 10.812 38.4399 11.004 38.1999 11.388C37.9759 11.772 37.8639 12.228 37.8639 12.756C37.8639 13.844 38.0079 14.796 38.2959 15.612L39.8319 14.484C40.2479 14.18 40.4559 13.74 40.4559 13.164C40.4559 12.956 40.4399 12.74 40.4079 12.516C40.3759 12.276 40.3119 12.02 40.2159 11.748C40.1359 11.476 39.9999 11.252 39.8079 11.076C39.6159 10.9 39.3919 10.812 39.1359 10.812Z" fill="#28322E"/><path d="M49.8473 7.81199C49.2873 8.32399 48.5592 8.57999 47.6632 8.57999C46.7672 8.57999 46.0312 8.32399 45.4552 7.81199C44.8952 7.29999 44.6152 6.66799 44.6152 5.91599C44.6152 5.16399 44.8952 4.53999 45.4552 4.04399C46.0312 3.53199 46.7672 3.27599 47.6632 3.27599C48.5592 3.27599 49.2873 3.53199 49.8473 4.04399C50.4233 4.53999 50.7113 5.16399 50.7113 5.91599C50.7113 6.66799 50.4233 7.29999 49.8473 7.81199ZM44.7832 21.276C44.3832 21.276 44.1833 21.108 44.1833 20.772V20.676C44.1833 20.468 44.3432 20.148 44.6632 19.716C44.9992 19.268 45.1673 18.828 45.1673 18.396V14.532C45.1673 14.1 44.9992 13.676 44.6632 13.26C44.3432 12.828 44.1833 12.524 44.1833 12.348V12.252C44.1833 12.044 44.3832 11.844 44.7832 11.652L48.8873 9.63599C49.2393 9.47599 49.5193 9.45999 49.7273 9.58799C49.9513 9.71599 50.0633 9.91599 50.0633 10.188V18.396C50.0633 18.828 50.2472 19.268 50.6152 19.716C50.9832 20.148 51.1673 20.468 51.1673 20.676V20.772C51.1673 21.108 50.9673 21.276 50.5673 21.276H44.7832Z" fill="#28322E"/><path d="M51.2663 21.276C50.8663 21.276 50.6662 21.108 50.6662 20.772V20.676C50.6662 20.468 50.8263 20.148 51.1463 19.716C51.4823 19.268 51.6502 18.828 51.6502 18.396V8.09999C51.6502 7.66799 51.4823 7.24399 51.1463 6.82799C50.8263 6.39599 50.6662 6.09199 50.6662 5.91599V5.81999C50.6662 5.61199 50.8663 5.41199 51.2663 5.21999L55.3703 3.20399C55.7223 3.04399 56.0023 3.02799 56.2103 3.15599C56.4343 3.28399 56.5462 3.48399 56.5462 3.75599V18.396C56.5462 18.828 56.7303 19.268 57.0983 19.716C57.4663 20.148 57.6502 20.468 57.6502 20.676V20.772C57.6502 21.108 57.4503 21.276 57.0503 21.276H51.2663Z" fill="#28322E"/><path d="M73.1006 18.396C73.1006 18.828 73.2606 19.268 73.5806 19.716C73.9166 20.148 74.0846 20.468 74.0846 20.676V20.772C74.0846 21.108 73.8846 21.276 73.4846 21.276H69.6686C69.2366 21.276 69.0046 21.068 68.9726 20.652C68.2686 21.228 67.3646 21.516 66.2606 21.516C64.7086 21.516 63.3726 20.996 62.2526 19.956C61.1326 18.9 60.5726 17.42 60.5726 15.516C60.5726 13.772 61.1326 12.34 62.2526 11.22C63.3886 10.084 64.7246 9.51599 66.2606 9.51599C67.1566 9.51599 67.8926 9.68399 68.4686 10.02V7.30799C68.4686 7.03599 68.3966 6.79599 68.2526 6.58799C68.1086 6.37999 67.9566 6.21999 67.7966 6.10799C67.6366 5.97999 67.4846 5.83599 67.3406 5.67599C67.1966 5.51599 67.1246 5.35599 67.1246 5.19599V5.12399C67.1246 4.77199 67.3246 4.53999 67.7246 4.42799L71.9486 3.17999C72.7166 2.95599 73.1006 3.16399 73.1006 3.80399V18.396ZM67.3406 20.244C67.6766 20.26 67.9486 20.124 68.1566 19.836C68.3646 19.548 68.4686 19.156 68.4686 18.66V13.716C68.4686 12.964 68.2766 12.292 67.8926 11.7C67.5246 11.092 67.1166 10.788 66.6686 10.788C65.7886 10.788 65.3086 11.62 65.2286 13.284C65.1966 13.892 65.2366 14.716 65.3486 15.756C65.4766 16.78 65.7166 17.78 66.0686 18.756C66.4206 19.716 66.8446 20.212 67.3406 20.244Z" fill="#28322E"/><path d="M75.4215 11.268C75.1175 11.444 74.8375 11.404 74.5815 11.148C74.3415 10.876 74.3415 10.62 74.5815 10.38C74.9655 9.97999 75.2215 9.70799 75.3495 9.56399C75.4935 9.41999 75.6295 9.23599 75.7575 9.01199C75.8855 8.78799 75.9575 8.56399 75.9735 8.33999C76.0055 7.95599 75.8935 7.76399 75.6375 7.76399C75.1255 7.76399 74.6855 7.53199 74.3175 7.06799C73.9495 6.60399 73.7655 6.01999 73.7655 5.31599C73.7655 4.46799 74.0055 3.78799 74.4855 3.27599C74.9815 2.74799 75.6375 2.48399 76.4535 2.48399C77.2215 2.48399 77.8855 2.77199 78.4455 3.34799C79.0055 3.92399 79.2855 4.70799 79.2855 5.69999C79.2855 7.89199 77.9975 9.74799 75.4215 11.268Z" fill="#28322E"/><path d="M87.0609 21.516C84.7889 21.516 82.8049 20.716 81.1089 19.116C79.4289 17.516 78.5889 15.436 78.5889 12.876C78.5889 10.22 79.3649 8.07599 80.9169 6.44399C82.4689 4.81199 84.5169 3.99599 87.0609 3.99599C89.3649 3.99599 91.3569 4.82799 93.0369 6.49199C94.7329 8.15599 95.5809 10.284 95.5809 12.876C95.5809 15.468 94.7649 17.556 93.1329 19.14C91.5009 20.724 89.4769 21.516 87.0609 21.516ZM88.5009 19.5C89.8289 19.5 90.4929 18.604 90.4929 16.812C90.4929 15.596 90.2369 14.148 89.7249 12.468C89.2129 10.772 88.5409 9.27599 87.7089 7.97999C86.8769 6.66799 86.0689 6.01199 85.2849 6.01199C83.9889 6.01199 83.3409 6.93199 83.3409 8.77199C83.3409 10.18 83.5889 11.724 84.0849 13.404C84.5969 15.084 85.2609 16.524 86.0769 17.724C86.9089 18.908 87.7169 19.5 88.5009 19.5Z" fill="#28322E"/><path d="M104.051 9.51599C104.739 9.51599 105.283 9.75599 105.683 10.236C106.099 10.7 106.307 11.3 106.307 12.036C106.307 13.732 105.619 14.58 104.243 14.58C103.683 14.58 103.259 14.46 102.971 14.22C102.699 13.964 102.539 13.684 102.491 13.38C102.459 13.076 102.387 12.804 102.275 12.564C102.163 12.308 101.987 12.18 101.747 12.18C101.363 12.18 101.171 12.676 101.171 13.668V18.396C101.171 18.732 101.283 19.036 101.507 19.308C101.731 19.58 101.955 19.828 102.179 20.052C102.403 20.276 102.515 20.484 102.515 20.676V20.772C102.515 21.108 102.315 21.276 101.915 21.276H96.1787C95.7787 21.276 95.5787 21.108 95.5787 20.772V20.676C95.5787 20.468 95.7387 20.148 96.0587 19.716C96.3947 19.268 96.5627 18.828 96.5627 18.396V14.292C96.5627 13.956 96.4587 13.676 96.2507 13.452C96.0587 13.212 95.8587 13.004 95.6507 12.828C95.4427 12.636 95.3387 12.444 95.3387 12.252V12.156C95.3387 11.868 95.5387 11.62 95.9387 11.412L99.7547 9.61199C100.091 9.48399 100.323 9.47599 100.451 9.58799C100.595 9.69999 100.667 9.89999 100.667 10.188V11.94C101.195 10.324 102.323 9.51599 104.051 9.51599Z" fill="#28322E"/></svg>