<svg width="24" height="24" viewBox="0 0 24 24" fill="none" xmlns="http://www.w3.org/2000/svg">
<path d="M13.0003 12L13.7503 11.567L18.3118 8.9333C18.4266 8.86695 18.5103 8.75772 18.5446 8.62963C18.5789 8.50153 18.561 8.36506 18.4947 8.25022C18.4284 8.13537 18.3192 8.05155 18.1911 8.01718C18.0632 7.98284 17.9268 8.00069 17.812 8.0668C17.8119 8.06681 17.8119 8.06682 17.8119 8.06684C17.8118 8.06688 17.8118 8.06691 17.8117 8.06695L13.25 10.7008L12.5 11.1338V10.2678V5C12.5 4.86739 12.4473 4.74022 12.3535 4.64645C12.2597 4.55268 12.1326 4.5 12 4.5C11.8673 4.5 11.7402 4.55268 11.6464 4.64645C11.5526 4.74022 11.5 4.86739 11.5 5V10.2678V11.1338L10.7499 10.7008L6.18821 8.06692C6.07333 8.00069 5.93685 7.98279 5.80878 8.01715C5.6807 8.05152 5.57151 8.13534 5.50522 8.25019C5.43893 8.36503 5.42096 8.5015 5.45526 8.6296C5.48954 8.75763 5.57324 8.86681 5.68796 8.93317C5.68797 8.93318 5.68799 8.93319 5.688 8.9332C5.68804 8.93322 5.68809 8.93325 5.68813 8.93327L10.2497 11.567L10.9996 12L10.2496 12.433L5.68813 15.0667L13.0003 12ZM13.0003 12L13.7503 12.433M13.0003 12L13.7503 12.433M13.7503 12.433L18.2572 15.0352L18.3118 15.0667C18.4266 15.1331 18.5103 15.2423 18.5446 15.3704C18.5789 15.4985 18.561 15.635 18.4947 15.7498C18.4284 15.8647 18.3192 15.9485 18.1911 15.9828C18.0631 16.0172 17.9266 15.9993 17.8117 15.9331L13.25 13.2992L12.5 12.8662V13.7322V19C12.5 19.1326 12.4473 19.2598 12.3535 19.3536C12.2597 19.4473 12.1326 19.5 12 19.5C11.8673 19.5 11.7402 19.4473 11.6464 19.3536C11.5526 19.2598 11.5 19.1326 11.5 19V13.7322V12.8662M13.7503 12.433L11.5 12.8662M11.5 12.8662L10.7499 13.2992M11.5 12.8662L10.7499 13.2992M10.7499 13.2992L6.18821 15.933C6.07333 15.9993 5.93685 16.0172 5.80878 15.9828C5.6807 15.9485 5.57151 15.8646 5.50522 15.7498C5.43893 15.6349 5.42096 15.4985 5.45526 15.3704C5.48954 15.2423 5.57324 15.1332 5.68796 15.0668L10.7499 13.2992Z" fill="#CCA43B" stroke="#CCA43B"/>
</svg>
