<svg width="80" height="16" viewBox="0 0 80 16" fill="none" xmlns="http://www.w3.org/2000/svg">
<path d="M8.00001 1.3335L10.06 5.50683L14.6667 6.18016L11.3333 9.42683L12.12 14.0135L8.00001 11.8468L3.88001 14.0135L4.66668 9.42683L1.33334 6.18016L5.94001 5.50683L8.00001 1.3335Z" fill="#FFD600"/>
<path d="M24 1.3335L26.06 5.50683L30.6667 6.18016L27.3333 9.42683L28.12 14.0135L24 11.8468L19.88 14.0135L20.6667 9.42683L17.3333 6.18016L21.94 5.50683L24 1.3335Z" fill="#FFD600"/>
<path d="M40 1.3335L42.06 5.50683L46.6667 6.18016L43.3333 9.42683L44.12 14.0135L40 11.8468L35.88 14.0135L36.6667 9.42683L33.3333 6.18016L37.94 5.50683L40 1.3335Z" fill="#FFD600"/>
<path d="M56 1.3335L58.06 5.50683L62.6667 6.18016L59.3333 9.42683L60.12 14.0135L56 11.8468L51.88 14.0135L52.6667 9.42683L49.3333 6.18016L53.94 5.50683L56 1.3335Z" fill="#FFD600"/>
<path d="M72 1.3335L74.06 5.50683L78.6667 6.18016L75.3333 9.42683L76.12 14.0135L72 11.8468L67.88 14.0135L68.6667 9.42683L65.3333 6.18016L69.94 5.50683L72 1.3335Z" fill="#FFD600"/>
</svg>
