<svg width="16" height="16" viewBox="0 0 16 16" fill="none" xmlns="http://www.w3.org/2000/svg">
<path d="M12.3747 9.75588L9.33353 8.00002L12.3747 6.24416C12.5277 6.15571 12.6394 6.01009 12.6851 5.83933C12.7308 5.66856 12.7069 5.48663 12.6185 5.33352C12.5301 5.18042 12.3846 5.06868 12.2138 5.02286C12.0431 4.97705 11.8611 5.00092 11.708 5.08921L8.66666 6.84519V3.33335C8.66666 3.15654 8.59642 2.98697 8.47139 2.86195C8.34637 2.73693 8.1768 2.66669 7.99999 2.66669C7.82318 2.66669 7.65361 2.73693 7.52858 2.86195C7.40356 2.98697 7.33332 3.15654 7.33332 3.33335V6.84519L4.29199 5.08919C4.13884 5.0009 3.95689 4.97703 3.78615 5.02284C3.61541 5.06866 3.46985 5.1804 3.38148 5.3335C3.2931 5.48661 3.26914 5.66854 3.31487 5.83931C3.36059 6.01007 3.47226 6.15569 3.62532 6.24414L6.66645 8.00002L3.62532 9.75588C3.47226 9.84433 3.36059 9.98995 3.31487 10.1607C3.26914 10.3315 3.2931 10.5134 3.38148 10.6665C3.46985 10.8196 3.61541 10.9314 3.78615 10.9772C3.95689 11.023 4.13884 10.9991 4.29199 10.9108L7.33332 9.15485V12.6667C7.33332 12.8435 7.40356 13.0131 7.52858 13.1381C7.65361 13.2631 7.82318 13.3334 7.99999 13.3334C8.1768 13.3334 8.34637 13.2631 8.47139 13.1381C8.59642 13.0131 8.66666 12.8435 8.66666 12.6667V9.15485L11.708 10.9108C11.8611 10.9991 12.0431 11.023 12.2138 10.9772C12.3846 10.9314 12.5301 10.8196 12.6185 10.6665C12.7069 10.5134 12.7308 10.3315 12.6851 10.1607C12.6394 9.98997 12.5277 9.84435 12.3747 9.7559V9.75588Z" fill="#CCA43B"/>
</svg>
