<svg width="16" height="17" viewBox="0 0 16 17" fill="none" xmlns="http://www.w3.org/2000/svg">
<path d="M8.00004 2.1254C11.6867 2.1254 14.6667 5.11206 14.6667 8.79206C14.6667 12.4787 11.6867 15.4587 8.00004 15.4587C4.32004 15.4587 1.33337 12.4787 1.33337 8.79206C1.33337 5.11206 4.32004 2.1254 8.00004 2.1254ZM7.76671 5.41206C7.49337 5.41206 7.26671 5.63206 7.26671 5.91206V9.27873C7.26671 9.45206 7.36004 9.61206 7.51337 9.7054L10.1267 11.2654C10.2067 11.3121 10.2934 11.3387 10.3867 11.3387C10.5534 11.3387 10.72 11.2521 10.8134 11.0921C10.9534 10.8587 10.88 10.5521 10.64 10.4054L8.26671 8.99206V5.91206C8.26671 5.63206 8.04004 5.41206 7.76671 5.41206Z" fill="#CCA43B"/>
</svg>
