<svg width="16" height="16" viewBox="0 0 16 16" fill="none" xmlns="http://www.w3.org/2000/svg">
<path opacity="0.5" d="M8.00001 14.6667C11.6819 14.6667 14.6667 11.6819 14.6667 8.00004C14.6667 4.31814 11.6819 1.33337 8.00001 1.33337C4.31811 1.33337 1.33334 4.31814 1.33334 8.00004C1.33334 11.6819 4.31811 14.6667 8.00001 14.6667Z" fill="#CCA43B"/>
<path fill-rule="evenodd" clip-rule="evenodd" d="M8 4.83337C8.27614 4.83337 8.5 5.05723 8.5 5.33337V7.79293L10.0202 9.31315C10.2155 9.50842 10.2155 9.825 10.0202 10.0203C9.82496 10.2155 9.50838 10.2155 9.31311 10.0203L7.64645 8.35359C7.55268 8.25983 7.5 8.13265 7.5 8.00004V5.33337C7.5 5.05723 7.72386 4.83337 8 4.83337Z" fill="#CCA43B"/>
</svg>
