<svg width="24" height="24" viewBox="0 0 24 24" fill="none" xmlns="http://www.w3.org/2000/svg">
<rect width="24" height="24" rx="12" fill="#FEFEFE"/>
<path d="M5.33333 10.0914C5.33333 13.3334 8.01295 15.0609 9.97449 16.6073C10.6667 17.1529 11.3333 17.6667 12 17.6667C12.6667 17.6667 13.3333 17.1529 14.0255 16.6073C15.987 15.0609 18.6667 13.3334 18.6667 10.0914C18.6667 6.84944 14.9999 4.55031 12 7.66709C9.00011 4.55031 5.33333 6.84944 5.33333 10.0914Z" fill="#CCA43B"/>
<path d="M9.97449 16.6073L9.51018 17.1962L9.51018 17.1962L9.97449 16.6073ZM12 7.66709L11.4596 8.18719C11.601 8.33408 11.7961 8.41709 12 8.41709C12.2039 8.41709 12.399 8.33408 12.5404 8.18719L12 7.66709ZM14.0255 16.6073L13.5612 16.0183L13.5612 16.0183L14.0255 16.6073ZM10.4388 16.0183C9.41353 15.21 8.33635 14.4524 7.47912 13.4872C6.6476 12.5509 6.08333 11.4783 6.08333 10.0914H4.58333C4.58333 11.9464 5.35888 13.3587 6.35755 14.4832C7.33051 15.5788 8.57391 16.4582 9.51018 17.1962L10.4388 16.0183ZM6.08333 10.0914C6.08333 8.75102 6.84036 7.63995 7.8535 7.17683C8.81938 6.73533 10.1516 6.82823 11.4596 8.18719L12.5404 7.14699C10.8485 5.38917 8.8474 5.07324 7.22991 5.8126C5.6597 6.53035 4.58333 8.18982 4.58333 10.0914H6.08333ZM9.51018 17.1962C9.84937 17.4636 10.2294 17.7618 10.6184 17.9891C11.0072 18.2163 11.4763 18.4167 12 18.4167V16.9167C11.8571 16.9167 11.6595 16.8601 11.3752 16.694C11.0912 16.5281 10.7918 16.2965 10.4388 16.0183L9.51018 17.1962ZM14.4898 17.1962C15.4261 16.4582 16.6695 15.5788 17.6425 14.4832C18.6411 13.3587 19.4167 11.9464 19.4167 10.0914H17.9167C17.9167 11.4783 17.3524 12.5509 16.5209 13.4872C15.6636 14.4524 14.5865 15.21 13.5612 16.0183L14.4898 17.1962ZM19.4167 10.0914C19.4167 8.18982 18.3403 6.53035 16.7701 5.8126C15.1526 5.07324 13.1515 5.38917 11.4596 7.14699L12.5404 8.18719C13.8484 6.82823 15.1806 6.73533 16.1465 7.17683C17.1596 7.63995 17.9167 8.75102 17.9167 10.0914H19.4167ZM13.5612 16.0183C13.2082 16.2965 12.9088 16.5281 12.6248 16.694C12.3405 16.8601 12.1429 16.9167 12 16.9167V18.4167C12.5237 18.4167 12.9928 18.2163 13.3816 17.9891C13.7706 17.7618 14.1506 17.4636 14.4898 17.1962L13.5612 16.0183Z" fill="#CCA43B"/>
</svg>
