<svg width="16" height="17" viewBox="0 0 16 17" fill="none" xmlns="http://www.w3.org/2000/svg">
<path d="M11.0374 9.39611L10.7338 9.69802C10.7338 9.69802 10.012 10.4156 8.04204 8.45683C6.07204 6.49801 6.79376 5.78038 6.79376 5.78038L6.98497 5.59026C7.45601 5.1219 7.50041 4.36994 7.08945 3.82099L6.2488 2.69806C5.74015 2.01861 4.75726 1.92886 4.17426 2.50855L3.12786 3.54901C2.83878 3.83645 2.64506 4.20906 2.66855 4.62241C2.72865 5.67988 3.2071 7.95511 5.87687 10.6097C8.70805 13.4248 11.3645 13.5367 12.4508 13.4354C12.7944 13.4034 13.0932 13.2284 13.334 12.989L14.2811 12.0473C14.9203 11.4117 14.7401 10.322 13.9222 9.87732L12.6485 9.18494C12.1115 8.89299 11.4571 8.97876 11.0374 9.39611Z" fill="#CCA43B"/>
</svg>
