<svg width="16" height="16" viewBox="0 0 16 16" fill="none" xmlns="http://www.w3.org/2000/svg">
<path d="M10 6.00004L12.6667 3.33337M12.6667 3.33337V5.33337M12.6667 3.33337H10.6667" stroke="#CCA43B" stroke-width="1.5" stroke-linecap="round" stroke-linejoin="round"/>
<path opacity="0.5" d="M6.69172 3.54407L7.12439 4.31936C7.51486 5.01901 7.35811 5.93684 6.74313 6.55182C6.74313 6.55183 6.74313 6.55182 6.74313 6.55183C6.74301 6.55194 5.99728 7.29789 7.34967 8.65028C8.7014 10.002 9.44731 9.25763 9.44812 9.25682C9.44815 9.2568 9.44813 9.25681 9.44816 9.25678C10.0631 8.64183 10.9809 8.4851 11.6806 8.87556L12.4559 9.30823C13.5124 9.89784 13.6371 11.3795 12.7085 12.3081C12.1505 12.8661 11.4669 13.3003 10.7113 13.3289C9.43917 13.3771 7.27884 13.0552 5.11179 10.8882C2.94474 8.72111 2.6228 6.56078 2.67102 5.28868C2.69967 4.53303 3.13386 3.84945 3.69186 3.29145C4.62049 2.36281 6.10211 2.48758 6.69172 3.54407Z" fill="#CCA43B"/>
</svg>
