<svg width="24" height="24" viewBox="0 0 24 24" fill="none" xmlns="http://www.w3.org/2000/svg">
<rect width="24" height="24" rx="12" fill="#FEFEFE"/>
<path d="M14 9.99998L16.6667 7.33331M16.6667 7.33331V9.33331M16.6667 7.33331H14.6667" stroke="#CCA43B" stroke-width="1.5" stroke-linecap="round" stroke-linejoin="round"/>
<path d="M14.3708 13.6985L14.0671 14.0181C14.0671 14.0181 13.3454 14.778 11.3754 12.7039C9.40541 10.6299 10.1271 9.87005 10.1271 9.87005L10.3183 9.66874C10.7894 9.17283 10.8338 8.37664 10.4228 7.7954L9.58217 6.60641C9.07352 5.887 8.09064 5.79197 7.50763 6.40576L6.46123 7.50742C6.17215 7.81177 5.97843 8.2063 6.00193 8.64396C6.06202 9.76364 6.54048 12.1727 9.21024 14.9835C12.0414 17.9642 14.6979 18.0826 15.7842 17.9754C16.1278 17.9415 16.4266 17.7562 16.6674 17.5027L17.6144 16.5056C18.2537 15.8326 18.0735 14.6788 17.2556 14.208L15.9819 13.4749C15.4448 13.1658 14.7905 13.2566 14.3708 13.6985Z" fill="#CCA43B"/>
</svg>
