<svg width="16" height="17" viewBox="0 0 16 17" fill="none" xmlns="http://www.w3.org/2000/svg">
<path fill-rule="evenodd" clip-rule="evenodd" d="M7.99996 2.12534C5.05444 2.12534 2.66663 4.79372 2.66663 7.792C2.66663 10.7668 4.36884 14.0003 7.02467 15.2416C7.64379 15.531 8.35613 15.531 8.97525 15.2416C11.6311 14.0003 13.3333 10.7668 13.3333 7.792C13.3333 4.79372 10.9455 2.12534 7.99996 2.12534ZM7.99996 8.792C8.73634 8.792 9.33329 8.19505 9.33329 7.45867C9.33329 6.72229 8.73634 6.12534 7.99996 6.12534C7.26358 6.12534 6.66663 6.72229 6.66663 7.45867C6.66663 8.19505 7.26358 8.792 7.99996 8.792Z" fill="#CCA43B"/>
<path d="M8.97525 15.2416L8.76353 14.7887L8.76353 14.7887L8.97525 15.2416ZM7.02467 15.2416L7.23639 14.7887L7.23639 14.7887L7.02467 15.2416ZM3.16663 7.792C3.16663 5.03316 5.36592 2.62534 7.99996 2.62534V1.62534C4.74297 1.62534 2.16663 4.55429 2.16663 7.792H3.16663ZM7.99996 2.62534C10.634 2.62534 12.8333 5.03316 12.8333 7.792H13.8333C13.8333 4.55429 11.257 1.62534 7.99996 1.62534V2.62534ZM12.8333 7.792C12.8333 10.6143 11.2086 13.6458 8.76353 14.7887L9.18697 15.6946C12.0536 14.3547 13.8333 10.9192 13.8333 7.792H12.8333ZM8.76353 14.7887C8.27859 15.0153 7.72133 15.0153 7.23639 14.7887L6.81295 15.6946C7.56625 16.0467 8.43367 16.0467 9.18697 15.6946L8.76353 14.7887ZM7.23639 14.7887C4.79133 13.6458 3.16663 10.6143 3.16663 7.792H2.16663C2.16663 10.9192 3.94635 14.3547 6.81295 15.6946L7.23639 14.7887ZM8.83329 7.45867C8.83329 7.91891 8.4602 8.292 7.99996 8.292V9.292C9.01248 9.292 9.83329 8.47119 9.83329 7.45867H8.83329ZM7.99996 8.292C7.53972 8.292 7.16663 7.91891 7.16663 7.45867H6.16663C6.16663 8.47119 6.98744 9.292 7.99996 9.292V8.292ZM7.16663 7.45867C7.16663 6.99843 7.53972 6.62534 7.99996 6.62534V5.62534C6.98744 5.62534 6.16663 6.44615 6.16663 7.45867H7.16663ZM7.99996 6.62534C8.4602 6.62534 8.83329 6.99843 8.83329 7.45867H9.83329C9.83329 6.44615 9.01248 5.62534 7.99996 5.62534V6.62534Z" fill="#CCA43B"/>
</svg>
