<svg width="16" height="16" viewBox="0 0 16 16" fill="none" xmlns="http://www.w3.org/2000/svg">
<path opacity="0.5" d="M7.99999 1.33337C5.05447 1.33337 2.66666 4.00176 2.66666 7.00004C2.66666 9.97482 4.36887 13.2083 7.0247 14.4497C7.64382 14.7391 8.35616 14.7391 8.97528 14.4497C11.6311 13.2083 13.3333 9.97482 13.3333 7.00004C13.3333 4.00176 10.9455 1.33337 7.99999 1.33337Z" fill="#CCA43B"/>
<path d="M8.00001 8.33333C8.92048 8.33333 9.66668 7.58714 9.66668 6.66667C9.66668 5.74619 8.92048 5 8.00001 5C7.07954 5 6.33334 5.74619 6.33334 6.66667C6.33334 7.58714 7.07954 8.33333 8.00001 8.33333Z" fill="#CCA43B"/>
</svg>
