<svg width="24" height="24" viewBox="0 0 24 24" fill="none" xmlns="http://www.w3.org/2000/svg">
<path fill-rule="evenodd" clip-rule="evenodd" d="M13.1562 14.444C13.1562 11.5242 15.5232 9.1571 18.4431 9.1571C21.3629 9.1571 23.73 11.5242 23.73 14.444C23.73 17.3637 21.363 19.7308 18.4431 19.7308C15.5232 19.7308 13.1562 17.3638 13.1562 14.444Z" fill="#F7F7F7"/>
<path fill-rule="evenodd" clip-rule="evenodd" d="M14.825 16.3202C14.1223 16.5001 13.4069 16.0763 13.227 15.3737L14.4992 15.048C13.227 15.3737 13.2269 15.3731 13.2267 15.3724L13.2263 15.3709L13.2254 15.3672L13.2229 15.3572L13.2156 15.3272C13.2097 15.3028 13.202 15.2697 13.1928 15.2283C13.1745 15.1456 13.1504 15.0298 13.1239 14.885C13.071 14.5958 13.0084 14.1884 12.9648 13.6962C12.8784 12.7191 12.8636 11.3704 13.1736 9.93647C13.4848 8.4968 14.1314 6.9375 15.3909 5.60155C16.6583 4.25723 18.4709 3.21939 20.9749 2.71276C21.6858 2.56892 22.3787 3.02861 22.5225 3.73949C22.6663 4.45038 22.2066 5.14326 21.4958 5.2871C19.453 5.70042 18.1502 6.50357 17.302 7.40326C16.446 8.31132 15.9769 9.39904 15.7408 10.4914C15.5034 11.5895 15.5097 12.6578 15.5811 13.4647C15.6165 13.8646 15.667 14.1909 15.7075 14.4125C15.7278 14.5231 15.7454 14.6069 15.7571 14.66C15.763 14.6865 15.7674 14.7053 15.7699 14.7159L15.7723 14.7255C15.9501 15.4271 15.5265 16.1406 14.825 16.3202Z" fill="#F7F7F7"/>
<path fill-rule="evenodd" clip-rule="evenodd" d="M0.476562 14.444C0.476562 11.5242 2.84361 9.1571 5.76342 9.1571C8.68322 9.1571 11.0503 11.5242 11.0503 14.444C11.0503 17.3637 8.68322 19.7308 5.76342 19.7308C2.84361 19.7308 0.476562 17.3638 0.476562 14.444Z" fill="#F7F7F7"/>
<path fill-rule="evenodd" clip-rule="evenodd" d="M2.14528 16.3202C1.44266 16.5001 0.727234 16.0764 0.547338 15.3737L1.81955 15.048C0.547338 15.3737 0.547174 15.3731 0.547001 15.3724L0.546611 15.3709L0.545672 15.3672L0.543181 15.3572L0.535885 15.3272C0.530047 15.3028 0.522326 15.2697 0.513158 15.2283C0.494832 15.1456 0.470667 15.0298 0.444184 14.885C0.391305 14.5959 0.328679 14.1884 0.285126 13.6962C0.198656 12.7191 0.18391 11.3704 0.493854 9.93648C0.805046 8.4968 1.45169 6.9375 2.71116 5.60155C3.97853 4.25722 5.79119 3.21939 8.2952 2.71276C9.00609 2.56893 9.69897 3.02861 9.8428 3.7395C9.98663 4.45038 9.52695 5.14327 8.81606 5.2871C6.77323 5.70042 5.47046 6.50358 4.62228 7.40326C3.7662 8.31132 3.29719 9.39904 3.06107 10.4914C2.8237 11.5895 2.83 12.6578 2.90141 13.4647C2.93679 13.8646 2.98731 14.1909 3.02784 14.4125C3.04806 14.5231 3.06567 14.6069 3.07743 14.66C3.08331 14.6865 3.08772 14.7053 3.09025 14.7159L3.09258 14.7254C3.27039 15.427 2.84685 16.1406 2.14528 16.3202Z" fill="#F7F7F7"/>
</svg>
