<svg width="418" height="119" viewBox="0 0 418 119" fill="none" xmlns="http://www.w3.org/2000/svg">
<g clip-path="url(#clip0_271_2474)">
<path d="M267.496 1.05582C264.032 1.71407 259.851 2.492 258.119 2.79121C256.447 3.15025 253.221 3.92818 250.952 4.58643C248.742 5.18484 245.994 5.90293 244.919 6.1423C241.634 6.80054 223.298 12.9642 217.026 15.5373C209.023 18.7687 199.884 23.556 196.958 26.0693C195.106 27.685 194.628 28.463 194.748 29.7196C194.927 31.0361 195.226 31.2755 197.137 31.455C199.526 31.6345 202.034 30.6771 201.497 29.7196C201.258 29.4204 200.482 29.1811 199.645 29.1811C196.241 29.1811 198.391 27.3858 207.768 22.419C220.311 15.8365 245.755 7.27927 260.926 4.58643C279.083 1.35502 284.339 1.53455 286.908 5.4242C287.684 6.68086 287.744 7.33912 287.147 9.79259C285.773 15.657 282.368 21.0427 274.902 29.4803C271.737 33.0707 270.602 33.9085 267.914 34.7463C266.122 35.3447 261.703 37.2596 258.059 38.995C242.231 46.7743 228.315 57.3662 228.793 61.3157C228.972 62.9314 229.151 62.9912 232.257 63.1707C235.124 63.2904 236.139 62.9912 240.798 60.6574C247.786 57.0669 259.791 48.1506 267.198 41.0894C273.111 35.4644 273.29 35.3447 277.112 34.6266C282.727 33.6691 287.505 33.7888 288.401 34.866C288.998 35.584 288.879 36.1226 287.565 37.7982C285.355 40.7902 281.95 43.3634 273.469 48.6294C263.853 54.6733 258.776 58.2638 258.298 59.4606C257.82 60.7172 258.358 61.4952 259.612 61.4952C260.687 61.4952 274.902 51.9206 283.623 45.2783C288.52 41.5681 298.256 36.4218 298.973 37.1997C299.152 37.3793 298.017 38.6958 296.404 40.0721C294.792 41.4485 291.089 44.9192 288.102 47.7318C278.904 56.5882 275.5 59.0417 266.481 63.4699C261.762 65.7439 257.94 67.958 257.94 68.3769C257.94 69.2147 260.687 71.6681 261.583 71.6681C261.882 71.6681 262.121 70.95 262.121 69.9926C262.121 68.5564 262.718 68.0777 267.198 65.8636C270.005 64.4872 272.274 63.5298 272.274 63.7093C272.274 63.8888 271.558 64.9061 270.662 66.0431C267.556 69.6934 256.745 86.2095 256.745 87.1669C256.745 87.526 257.342 87.8252 258.119 87.8252C259.194 87.8252 260.15 86.8079 262.419 83.1576C264.032 80.6443 268.093 74.4208 271.498 69.454L277.71 60.2984L284.399 56.8874C288.043 54.9725 291.268 53.3568 291.447 53.2371C291.686 53.1174 291.746 53.656 291.566 54.3143C291.328 55.0922 291.566 55.8103 291.985 56.1095C293.299 56.9473 295.986 55.152 298.495 51.6813C301.541 47.6121 308.828 43.5429 313.128 43.5429C314.98 43.5429 315.876 43.7823 315.876 44.3208C315.876 45.398 313.248 47.7318 309.186 50.3648C306.857 51.8009 305.722 52.8781 305.722 53.7159C305.722 55.93 308.051 55.0324 314.621 50.3648C320.415 46.1759 325.611 43.124 329.434 41.6878C332.181 40.6705 330.628 42.3461 326.686 44.62C322.565 47.0137 321.43 48.2105 322.028 49.7663C323.043 52.4592 329.971 50.0057 339.229 43.7823L345.083 39.8328L346.576 41.0296L348.129 42.2264L345.979 43.8421C344.366 45.0988 343.948 45.8168 344.067 47.0137C344.246 48.4498 344.545 48.6294 346.636 48.8089C347.95 48.9286 350.1 48.6892 351.354 48.3302C353.385 47.7318 353.863 47.7318 354.46 48.5695C356.192 50.9632 362.105 48.8687 364.375 44.9791C365.33 43.3035 365.928 42.9445 366.883 43.1838C367.6 43.3634 370.049 43.5429 372.378 43.5429C376.559 43.5429 376.619 43.5429 377.455 45.4578C379.247 49.5868 385.399 51.3222 398.001 51.4419C404.99 51.5616 406.244 51.3821 410.425 49.9459C415.681 48.0908 418.01 46.7743 418.01 45.5775C418.01 44.4405 416.577 44.5602 413.949 45.8767C409.111 48.3302 404.512 49.0483 395.911 48.7491C387.728 48.4498 383.727 47.5522 381.457 45.5176C379.725 43.9618 380.203 43.0642 383.249 42.1067C387.31 40.9099 390.416 39.1745 393.104 36.6612C396.21 33.7888 395.911 32.4723 392.208 32.5322C389.819 32.5322 388.624 33.0707 384.324 36.0029C381.517 37.858 378.948 39.8328 378.709 40.3713C378.291 41.0894 377.097 41.3288 373.633 41.3886C369.75 41.4485 368.914 41.2689 367.719 40.0721C365.987 38.4564 364.853 38.3966 363.001 39.8328C357.805 43.7224 351.533 46.5349 348.129 46.4751C346.397 46.4751 350.04 44.1413 352.369 43.7823C355.535 43.2437 355.296 42.2264 351.772 40.9697C349.323 40.132 348.786 39.6532 348.607 38.2769C348.487 37.3793 348.009 36.6013 347.472 36.4817C346.456 36.3021 340.304 39.8926 335.168 43.7224C331.943 46.0562 326.746 48.6294 326.209 48.1506C326.029 47.9711 326.806 47.3727 327.941 46.8341C333.257 44.0815 335.168 41.3288 332.659 39.9524C330.569 38.8753 328.359 39.2942 324.118 41.5681L319.997 43.8421L318.922 42.4059C317.847 41.0296 317.608 40.9697 311.934 41.3288C305.005 41.6878 301.242 42.8846 299.152 45.3381C298.316 46.2956 295.27 48.4498 292.403 50.1254C284.459 54.6733 284.519 54.1946 293.179 46.5948C301.063 39.5934 302.736 37.858 302.736 36.362C302.736 35.2848 302.318 35.1652 299.331 35.1652C296.942 35.1652 295.27 35.5242 293.896 36.362C291.447 37.858 291.268 37.858 291.746 36.1226C291.985 35.0455 291.626 34.3872 290.073 33.0707C288.162 31.455 288.043 31.3952 281.95 31.7542L275.798 32.1133L278.964 28.6425C284.698 22.4789 289.655 13.7421 290.432 8.53593C291.566 1.1755 282.488 -1.75671 267.496 1.05582ZM390.834 35.7636C390.297 36.6612 384.443 39.9524 383.428 39.9524C382.592 39.9524 388.385 35.584 389.998 35.0455C391.073 34.6266 391.372 34.9258 390.834 35.7636ZM264.271 40.7304C257.641 46.5948 244.501 56.1095 239.723 58.5031C220.67 67.958 238.588 51.9206 258.836 41.3288C262.778 39.2942 266.421 37.6186 266.899 37.6186C267.377 37.6186 266.182 38.995 264.271 40.7304ZM361.269 45.3381C361.269 45.9365 359.358 47.1334 358.342 47.1334C357.207 47.1334 357.625 46.1161 359.059 45.4578C360.731 44.62 361.269 44.62 361.269 45.3381Z" fill="white"/>
<path d="M68.1248 20.8632C64.0633 21.5813 53.4317 25.7103 45.3088 29.7197C38.3803 33.1904 27.0918 38.1572 26.2556 38.1572C25.9569 38.1572 24.2846 38.8155 22.5524 39.5934C20.7606 40.3713 16.4005 42.2863 12.7571 43.7823C3.26036 47.7916 0.273967 49.5869 0.0350553 51.1427C-0.203856 52.9379 0.811517 52.8781 3.1409 51.0829C6.06757 48.8688 19.8647 42.3461 21.6565 42.3461C21.9552 42.3461 23.2692 41.8075 24.6429 41.1493C26.0167 40.491 29.6601 38.995 32.7659 37.858C35.8718 36.6612 42.621 33.6692 47.6979 31.2755C60.3602 25.2316 66.99 23.0773 73.0225 22.9576C76.845 22.8978 77.8007 23.0773 78.398 23.9151C79.2939 25.4111 76.4867 30.3779 71.5293 36.1825L67.5872 40.7304L61.0769 42.9445C49.4897 46.8342 40.9486 51.9805 33.9007 59.1614C29.3017 63.829 27.689 66.7014 28.1071 69.3942C28.4058 71.728 31.9297 71.5485 36.8274 68.9753C42.5015 65.9833 53.9096 57.2465 62.152 49.527C68.3637 43.7823 69.4388 43.0043 71.8279 42.6453C75.531 42.0469 78.7563 42.7051 78.7563 44.0216C78.7563 44.5602 76.2478 47.4326 73.2614 50.4246C68.4234 55.2119 66.094 56.8874 55.1638 63.4101C43.5169 70.3517 40.4111 72.865 43.3975 72.865C45.0698 72.865 57.6127 65.6841 63.8841 61.1362C67.0497 58.8622 79.2342 52.7584 79.712 53.2371C79.8912 53.4167 78.3382 54.8529 76.2478 56.4686C74.1573 58.0244 70.2153 61.555 67.4081 64.188C62.6896 68.736 60.2407 70.5312 60.2407 69.3942C60.2407 69.095 61.2561 67.958 62.5104 66.8809C64.3022 65.2053 64.5411 64.7864 63.6452 64.6069C62.4506 64.3676 56.657 68.9753 56.657 70.232C56.657 70.6509 57.1946 71.3091 57.9113 71.6682C59.0462 72.3264 58.6281 72.865 51.7594 79.9262C37.3649 94.7668 24.2846 114.036 25.8375 118.045C26.4945 119.78 29.4211 119.062 31.6311 116.669C35.6328 112.42 39.9332 106.855 39.6346 106.376C39.0373 105.418 37.9025 106.316 33.4826 111.163C31.0935 113.796 28.8239 115.95 28.4655 115.95C26.9126 115.95 37.2455 99.9131 44.2934 91.4755C51.401 83.0379 63.1076 71.2493 64.8995 70.7705C66.6316 70.3517 72.7238 67.7187 81.3246 63.7093C86.6404 61.2558 88.9101 60.9566 85.0278 63.2306C80.5482 65.8636 84.311 68.1974 88.9101 65.6242C91.12 64.3676 91.4186 64.3676 92.2548 65.2053C93.0313 65.9234 93.6883 65.9833 95.958 65.5644C99.6611 64.7864 107.605 60.9566 111.189 58.2039C113.637 56.3489 114.055 56.1694 114.414 57.067C114.653 57.7252 114.294 58.5032 113.339 59.2212C109.875 62.0338 108.62 63.3503 108.62 64.3077C108.62 65.1455 109.218 65.2053 113.339 64.9061C117.878 64.6069 118.117 64.6668 118.296 65.8636C118.595 68.1974 123.672 67.8383 134.005 64.7864C134.9 64.5471 135.378 64.7864 135.796 65.8037C136.573 67.5391 138.843 67.8383 141.769 66.6415C143.143 66.0431 144.815 65.8636 146.428 66.0431C149.414 66.462 155.327 65.0258 159.449 62.9314C161.061 62.1535 162.674 61.4952 163.092 61.4952C164.346 61.555 159.09 66.0431 155.327 68.1375C142.785 75.1389 127.912 86.9874 120.506 95.7841C118.117 98.6564 117.579 99.6737 117.579 101.589C117.579 103.623 117.818 104.042 119.132 104.341C123.612 105.478 130.301 101.05 139.081 91.0566C142.785 86.8079 149.474 79.5073 153.954 74.8996C160.285 68.3171 162.853 66.0431 165.66 64.6668C171.096 61.9739 178.98 58.9819 179.816 59.2212C180.234 59.4008 178.621 60.5377 176.232 61.8542C171.872 64.2479 170.797 65.3849 171.932 66.5218C172.29 66.8809 174.201 66.2226 177.725 64.3676C180.652 62.8715 185.191 60.8968 187.819 60.059L192.717 58.4433L194.509 60.2984C196.062 61.7944 196.779 62.0936 199.287 62.0936C205.021 62.0936 214.219 58.1441 211.173 56.9473C210.695 56.7678 209.501 57.0071 208.545 57.4859C205.559 59.0417 199.586 59.9992 197.794 59.1614C196.599 58.6228 196.42 58.2638 196.898 57.7851C197.854 56.8276 197.794 55.6906 196.779 55.3316C196.36 55.1521 194.21 55.6308 192.06 56.3489C188.954 57.426 188.058 57.4859 187.819 56.8874C187.103 55.0324 178.8 56.6481 171.394 60.059C168.945 61.196 166.855 61.9739 166.735 61.8542C166.616 61.7346 167.452 60.6574 168.587 59.4606C169.782 58.3236 170.737 56.9473 170.737 56.4087C170.737 55.1521 168.587 55.2717 166.676 56.6481C163.868 58.563 155.447 62.6322 152.64 63.3503C148.459 64.3676 148.16 63.7692 151.565 61.3157C153.237 60.1189 154.611 58.6827 154.611 58.2039C154.611 56.4686 152.64 57.2465 147.682 61.0165C144.636 63.2904 139.32 65.5644 138.663 64.8463C138.006 64.188 139.201 63.4101 146.906 59.5204C155.148 55.2717 178.98 39.7729 183.579 35.5841C186.266 33.1306 186.505 32.7715 185.669 31.9338C184.833 31.096 184.415 31.0362 181.966 31.8141C174.201 34.1479 154.491 46.9538 142.546 57.426C138.305 61.1362 136.334 62.0338 128.629 63.9487C120.088 65.9833 119.849 65.4447 127.375 61.196C130.182 59.6401 132.929 57.8449 133.467 57.2465C134.363 56.2292 134.363 56.1095 133.467 55.7505C132.87 55.5111 130.421 56.5284 127.136 58.4433C122.417 61.1362 116.206 63.2904 113.398 63.2904C112.025 63.2306 115.011 60.9566 118.655 59.2811C122.238 57.6055 122.417 56.4087 119.192 56.4087C116.684 56.4087 116.684 56.4087 117.878 53.5364C119.431 49.8262 117.46 49.7065 113.518 53.297C109.576 56.9473 105.753 59.4606 100.915 61.4952C96.7344 63.2904 94.5245 63.7692 95.1218 62.7519C95.3009 62.4527 97.929 60.5377 100.915 58.5032C104.559 55.9898 106.231 54.4938 105.992 53.9552C105.753 53.3568 106.41 52.7584 107.724 52.1002C109.815 51.0829 110.651 48.9286 108.919 48.9286C108.441 48.9286 104.618 50.664 100.438 52.7584C91.8367 57.067 68.6623 67.1801 68.304 66.7612C68.0053 66.462 72.4849 62.4527 79.9509 56.4686C85.3861 52.1002 86.3418 50.9034 85.5056 50.0656C84.9083 49.4672 80.4287 50.5443 76.6659 52.2198L74.2767 53.2371L77.6812 49.6467C81.2649 45.8767 82.34 43.4831 81.1455 42.0469C80.0704 40.7304 76.4867 39.7729 73.9184 40.132C72.6044 40.3115 71.589 40.2517 71.589 40.0721C71.589 39.8328 73.2614 37.6187 75.2324 35.1652C81.2052 27.7449 82.5192 24.0348 79.8912 21.6411C78.4577 20.3246 73.0225 19.9656 68.1248 20.8632ZM181.548 35.4045C181.13 35.8833 177.964 38.0974 174.44 40.3115C170.916 42.5256 164.048 46.9538 159.09 50.1254C147.802 57.3662 143.86 59.6401 143.86 58.8024C143.86 58.2638 158.433 47.5523 164.645 43.4831C171.275 39.1147 181.428 33.729 181.966 34.2676C182.145 34.3872 181.906 34.9258 181.548 35.4045ZM60.5393 48.1507C49.7286 58.3236 35.155 68.6761 31.5714 68.6761C26.375 68.6761 40.5903 54.3741 51.2815 48.9286C54.6263 47.1932 62.6298 44.2012 63.8244 44.2012C64.3022 44.2012 62.8687 45.9964 60.5393 48.1507ZM98.4665 57.3063C95.1218 59.9992 89.9254 63.2904 89.0295 63.2904C87.6558 63.2904 88.492 62.6322 94.2258 59.1614C99.5416 55.93 100.975 55.3316 98.4665 57.3063ZM148.28 77.8318C144.696 81.5419 139.081 87.4662 135.856 91.0566C129.704 97.8187 125.225 101.289 121.94 101.948C119.431 102.426 119.371 101.409 121.701 98.2375C124.03 95.066 134.363 85.0725 138.962 81.6018C144.517 77.3531 153.655 71.1296 154.252 71.0697C154.611 71.0697 151.923 74.1216 148.28 77.8318Z" fill="white"/>
</g>
<defs>
<clipPath id="clip0_271_2474">
<rect width="418" height="119" fill="white"/>
</clipPath>
</defs>
</svg>
