<svg width="24" height="24" viewBox="0 0 24 24" fill="none" xmlns="http://www.w3.org/2000/svg">
<path fill-rule="evenodd" clip-rule="evenodd" d="M4.25 19C4.25 18.5858 4.58579 18.25 5 18.25H19C19.4142 18.25 19.75 18.5858 19.75 19C19.75 19.4142 19.4142 19.75 19 19.75H5C4.58579 19.75 4.25 19.4142 4.25 19ZM7.25 22C7.25 21.5858 7.58579 21.25 8 21.25H16C16.4142 21.25 16.75 21.5858 16.75 22C16.75 22.4142 16.4142 22.75 16 22.75H8C7.58579 22.75 7.25 22.4142 7.25 22Z" fill="#CCA43B"/>
<path d="M6.08267 15.25C5.5521 14.2858 5.25 13.1778 5.25 12C5.25 8.27208 8.27208 5.25 12 5.25C15.7279 5.25 18.75 8.27208 18.75 12C18.75 13.1778 18.4479 14.2858 17.9173 15.25H22C22.4142 15.25 22.75 15.5858 22.75 16C22.75 16.4142 22.4142 16.75 22 16.75H2C1.58579 16.75 1.25 16.4142 1.25 16C1.25 15.5858 1.58579 15.25 2 15.25H6.08267Z" fill="#CCA43B"/>
<path fill-rule="evenodd" clip-rule="evenodd" d="M12 1.25C12.4142 1.25 12.75 1.58579 12.75 2V3C12.75 3.41421 12.4142 3.75 12 3.75C11.5858 3.75 11.25 3.41421 11.25 3V2C11.25 1.58579 11.5858 1.25 12 1.25ZM4.39861 4.39861C4.6915 4.10572 5.16638 4.10572 5.45927 4.39861L5.85211 4.79145C6.145 5.08434 6.145 5.55921 5.85211 5.85211C5.55921 6.145 5.08434 6.145 4.79145 5.85211L4.39861 5.45927C4.10572 5.16638 4.10572 4.6915 4.39861 4.39861ZM19.6011 4.39887C19.894 4.69176 19.894 5.16664 19.6011 5.45953L19.2083 5.85237C18.9154 6.14526 18.4405 6.14526 18.1476 5.85237C17.8547 5.55947 17.8547 5.0846 18.1476 4.79171L18.5405 4.39887C18.8334 4.10598 19.3082 4.10598 19.6011 4.39887ZM1.25 12C1.25 11.5858 1.58579 11.25 2 11.25H3C3.41421 11.25 3.75 11.5858 3.75 12C3.75 12.4142 3.41421 12.75 3 12.75H2C1.58579 12.75 1.25 12.4142 1.25 12ZM20.25 12C20.25 11.5858 20.5858 11.25 21 11.25H22C22.4142 11.25 22.75 11.5858 22.75 12C22.75 12.4142 22.4142 12.75 22 12.75H21C20.5858 12.75 20.25 12.4142 20.25 12Z" fill="#CCA43B"/>
<path d="M6.08267 15.25V15.75H6.92852L6.52073 15.0089L6.08267 15.25ZM17.9173 15.25L17.4793 15.0089L17.0715 15.75H17.9173V15.25ZM5.45927 4.39861L5.81282 4.04506V4.04506L5.45927 4.39861ZM4.39861 4.39861L4.04506 4.04506L4.04506 4.04506L4.39861 4.39861ZM5.85211 4.79145L6.20566 4.43789L6.20566 4.43789L5.85211 4.79145ZM5.85211 5.85211L6.20566 6.20566L6.20566 6.20566L5.85211 5.85211ZM4.79145 5.85211L4.43789 6.20566L4.43789 6.20566L4.79145 5.85211ZM4.39861 5.45927L4.04506 5.81282H4.04506L4.39861 5.45927ZM19.6011 5.45953L19.9547 5.81308V5.81308L19.6011 5.45953ZM19.2083 5.85237L19.5618 6.20592L19.5618 6.20592L19.2083 5.85237ZM18.1476 4.79171L17.7941 4.43815V4.43815L18.1476 4.79171ZM18.5405 4.39887L18.1869 4.04531L18.1869 4.04532L18.5405 4.39887ZM5 17.75C4.30964 17.75 3.75 18.3096 3.75 19H4.75C4.75 18.8619 4.86193 18.75 5 18.75V17.75ZM19 17.75H5V18.75H19V17.75ZM20.25 19C20.25 18.3096 19.6904 17.75 19 17.75V18.75C19.1381 18.75 19.25 18.8619 19.25 19H20.25ZM19 20.25C19.6904 20.25 20.25 19.6904 20.25 19H19.25C19.25 19.1381 19.1381 19.25 19 19.25V20.25ZM5 20.25H19V19.25H5V20.25ZM3.75 19C3.75 19.6904 4.30964 20.25 5 20.25V19.25C4.86193 19.25 4.75 19.1381 4.75 19H3.75ZM8 20.75C7.30964 20.75 6.75 21.3096 6.75 22H7.75C7.75 21.8619 7.86193 21.75 8 21.75V20.75ZM16 20.75H8V21.75H16V20.75ZM17.25 22C17.25 21.3096 16.6904 20.75 16 20.75V21.75C16.1381 21.75 16.25 21.8619 16.25 22H17.25ZM16 23.25C16.6904 23.25 17.25 22.6904 17.25 22H16.25C16.25 22.1381 16.1381 22.25 16 22.25V23.25ZM8 23.25H16V22.25H8V23.25ZM6.75 22C6.75 22.6904 7.30964 23.25 8 23.25V22.25C7.86193 22.25 7.75 22.1381 7.75 22H6.75ZM4.75 12C4.75 13.2642 5.07447 14.455 5.64462 15.4911L6.52073 15.0089C6.02972 14.1167 5.75 13.0913 5.75 12H4.75ZM12 4.75C7.99594 4.75 4.75 7.99594 4.75 12H5.75C5.75 8.54822 8.54822 5.75 12 5.75V4.75ZM19.25 12C19.25 7.99594 16.0041 4.75 12 4.75V5.75C15.4518 5.75 18.25 8.54822 18.25 12H19.25ZM18.3554 15.4911C18.9255 14.455 19.25 13.2642 19.25 12H18.25C18.25 13.0913 17.9703 14.1167 17.4793 15.0089L18.3554 15.4911ZM22 14.75H17.9173V15.75H22V14.75ZM23.25 16C23.25 15.3096 22.6904 14.75 22 14.75V15.75C22.1381 15.75 22.25 15.8619 22.25 16H23.25ZM22 17.25C22.6904 17.25 23.25 16.6904 23.25 16H22.25C22.25 16.1381 22.1381 16.25 22 16.25V17.25ZM2 17.25H22V16.25H2V17.25ZM0.75 16C0.75 16.6904 1.30964 17.25 2 17.25V16.25C1.86193 16.25 1.75 16.1381 1.75 16H0.75ZM2 14.75C1.30964 14.75 0.75 15.3096 0.75 16H1.75C1.75 15.8619 1.86193 15.75 2 15.75V14.75ZM6.08267 14.75H2V15.75H6.08267V14.75ZM13.25 2C13.25 1.30964 12.6904 0.75 12 0.75V1.75C12.1381 1.75 12.25 1.86193 12.25 2H13.25ZM13.25 3V2H12.25V3H13.25ZM12 4.25C12.6904 4.25 13.25 3.69036 13.25 3H12.25C12.25 3.13807 12.1381 3.25 12 3.25V4.25ZM10.75 3C10.75 3.69036 11.3096 4.25 12 4.25V3.25C11.8619 3.25 11.75 3.13807 11.75 3H10.75ZM10.75 2V3H11.75V2H10.75ZM12 0.75C11.3096 0.75 10.75 1.30964 10.75 2H11.75C11.75 1.86193 11.8619 1.75 12 1.75V0.75ZM5.81282 4.04506C5.32467 3.5569 4.53321 3.5569 4.04506 4.04506L4.75216 4.75216C4.84979 4.65453 5.00809 4.65453 5.10572 4.75216L5.81282 4.04506ZM6.20566 4.43789L5.81282 4.04506L5.10572 4.75216L5.49855 5.145L6.20566 4.43789ZM6.20566 6.20566C6.69382 5.7175 6.69382 4.92605 6.20566 4.43789L5.49855 5.145C5.59619 5.24263 5.59619 5.40092 5.49855 5.49855L6.20566 6.20566ZM4.43789 6.20566C4.92605 6.69382 5.7175 6.69382 6.20566 6.20566L5.49855 5.49855C5.40092 5.59619 5.24263 5.59619 5.145 5.49855L4.43789 6.20566ZM4.04506 5.81282L4.43789 6.20566L5.145 5.49855L4.75216 5.10572L4.04506 5.81282ZM4.04506 4.04506C3.5569 4.53321 3.5569 5.32467 4.04506 5.81282L4.75216 5.10572C4.65453 5.00809 4.65453 4.84979 4.75216 4.75216L4.04506 4.04506ZM19.9547 5.81308C20.4428 5.32493 20.4428 4.53347 19.9547 4.04532L19.2476 4.75242C19.3452 4.85005 19.3452 5.00835 19.2476 5.10598L19.9547 5.81308ZM19.5618 6.20592L19.9547 5.81308L19.2476 5.10598L18.8547 5.49881L19.5618 6.20592ZM17.7941 6.20592C18.2822 6.69408 19.0737 6.69407 19.5618 6.20592L18.8547 5.49881C18.7571 5.59644 18.5988 5.59644 18.5012 5.49881L17.7941 6.20592ZM17.7941 4.43815C17.3059 4.92631 17.3059 5.71776 17.7941 6.20592L18.5012 5.49881C18.4036 5.40118 18.4036 5.24289 18.5012 5.14526L17.7941 4.43815ZM18.1869 4.04532L17.7941 4.43815L18.5012 5.14526L18.894 4.75242L18.1869 4.04532ZM19.9547 4.04532C19.4665 3.55716 18.6751 3.55716 18.1869 4.04531L18.894 4.75242C18.9917 4.65479 19.1499 4.65479 19.2476 4.75242L19.9547 4.04532ZM2 10.75C1.30964 10.75 0.75 11.3096 0.75 12H1.75C1.75 11.8619 1.86193 11.75 2 11.75V10.75ZM3 10.75H2V11.75H3V10.75ZM4.25 12C4.25 11.3096 3.69036 10.75 3 10.75V11.75C3.13807 11.75 3.25 11.8619 3.25 12H4.25ZM3 13.25C3.69036 13.25 4.25 12.6904 4.25 12H3.25C3.25 12.1381 3.13807 12.25 3 12.25V13.25ZM2 13.25H3V12.25H2V13.25ZM0.75 12C0.75 12.6904 1.30964 13.25 2 13.25V12.25C1.86193 12.25 1.75 12.1381 1.75 12H0.75ZM21 10.75C20.3096 10.75 19.75 11.3096 19.75 12H20.75C20.75 11.8619 20.8619 11.75 21 11.75V10.75ZM22 10.75H21V11.75H22V10.75ZM23.25 12C23.25 11.3096 22.6904 10.75 22 10.75V11.75C22.1381 11.75 22.25 11.8619 22.25 12H23.25ZM22 13.25C22.6904 13.25 23.25 12.6904 23.25 12H22.25C22.25 12.1381 22.1381 12.25 22 12.25V13.25ZM21 13.25H22V12.25H21V13.25ZM19.75 12C19.75 12.6904 20.3096 13.25 21 13.25V12.25C20.8619 12.25 20.75 12.1381 20.75 12H19.75Z" fill="#CCA43B"/>
</svg>
